<?xml version="1.0" encoding="utf-8"?>
<!-- Generator: Adobe Illustrator 24.2.1, SVG Export Plug-In . SVG Version: 6.00 Build 0)  -->
<svg version="1.1" id="Layer_1" xmlns="http://www.w3.org/2000/svg" xmlns:xlink="http://www.w3.org/1999/xlink" x="0px" y="0px"
	 width="19.5px" height="19.4px" viewBox="0 0 19.5 19.4" style="enable-background:new 0 0 19.5 19.4;" xml:space="preserve">
<style type="text/css">
	.st0{fill:#565656;}
</style>
<path class="st0" d="M8.5,0.5C7.9,0.5,7.3,0.6,6.9,1C6.5,1.4,6.3,2,6.3,2.7H3.5C3.1,2.7,2.7,3,2.7,3.4H2v1.5h16V3.4h-0.7
	c0-0.4-0.3-0.7-0.7-0.7h-2.9c0-0.6-0.1-1.2-0.6-1.7c-0.4-0.4-1-0.5-1.6-0.5H8.5z M8.5,2h2.9C11.9,2,12,2.1,12,2.1
	c0,0,0.1,0.2,0.1,0.6H7.8c0-0.4,0.1-0.5,0.1-0.6S8.1,2,8.5,2z M3.5,5.6v11.6c0,1.2,1,2.2,2.2,2.2h8.7c1.2,0,2.2-1,2.2-2.2V5.6H3.5z
	 M6.4,7.8h1.5v8.7H6.4V7.8z M9.3,7.8h1.5v8.7H9.3V7.8z M12.2,7.8h1.5v8.7h-1.5V7.8z"/>
</svg>
